inDegrees=no
num_controls=7
num_derivatives=13
num_iterations=158
num_multipliers=7
num_parameters=0
num_slacks=7
num_states=26
objective=5.331218
objective_accelerations=0.250653
objective_balance=0.011012
objective_effort=0.284019
objective_height=4.712563
objective_ligament=0.072972
solver_duration=1435.407574
status=Solve_Succeeded
success=true
DataType=double
version=3
OpenSimVersion=4.4-2022-07-23-0e9fedc
endheader
time	/jointset/ground_pelvis/pelvis_tilt/value	/jointset/ground_pelvis/pelvis_tx/value	/jointset/ground_pelvis/pelvis_ty/value	/jointset/hip_r/hip_flexion_r/value	/jointset/hip_r/hip_adduction_r/value	/jointset/hip_r/hip_rotation_r/value	/jointset/back/lumbar_extension/value	/jointset/patellofemoral_r/patellar_flexion_r/value	/jointset/knee_r/knee_flexion_r/value	/jointset/knee_r/knee_adduction_r/value	/jointset/knee_r/knee_rotation_r/value	/jointset/ankle_r/ankle_angle_r/value	/jointset/subtalar_r/subtalar_angle_r/value	/jointset/ground_pelvis/pelvis_tilt/speed	/jointset/ground_pelvis/pelvis_tx/speed	/jointset/ground_pelvis/pelvis_ty/speed	/jointset/hip_r/hip_flexion_r/speed	/jointset/hip_r/hip_adduction_r/speed	/jointset/hip_r/hip_rotation_r/speed	/jointset/back/lumbar_extension/speed	/jointset/patellofemoral_r/patellar_flexion_r/speed	/jointset/knee_r/knee_flexion_r/speed	/jointset/knee_r/knee_adduction_r/speed	/jointset/knee_r/knee_rotation_r/speed	/jointset/ankle_r/ankle_angle_r/speed	/jointset/subtalar_r/subtalar_angle_r/speed	/forceset/tau_hip_flexion_r	/forceset/tau_hip_adduction_r	/forceset/tau_hip_rotation_r	/forceset/tau_knee_flexion_r	/forceset/tau_ankle_angle_r	/forceset/tau_subtalar_angle_r	/forceset/tau_lumbar_extension	lambda_cid13_p0	lambda_cid14_p0	lambda_cid14_p1	lambda_cid14_p2	lambda_cid14_p3	lambda_cid14_p4	lambda_cid14_p5	/jointset/ground_pelvis/pelvis_tilt/accel	/jointset/ground_pelvis/pelvis_tx/accel	/jointset/ground_pelvis/pelvis_ty/accel	/jointset/hip_r/hip_flexion_r/accel	/jointset/hip_r/hip_adduction_r/accel	/jointset/hip_r/hip_rotation_r/accel	/jointset/back/lumbar_extension/accel	/jointset/patellofemoral_r/patellar_flexion_r/accel	/jointset/knee_r/knee_flexion_r/accel	/jointset/knee_r/knee_adduction_r/accel	/jointset/knee_r/knee_rotation_r/accel	/jointset/ankle_r/ankle_angle_r/accel	/jointset/subtalar_r/subtalar_angle_r/accel	gamma_cid13_p0	gamma_cid14_p0	gamma_cid14_p1	gamma_cid14_p2	gamma_cid14_p3	gamma_cid14_p4	gamma_cid14_p5
1.5	0.02904693134084064	0.08072459691673714	0.8810094794955453	0.4731397292246722	-0.2291642894063975	-0.1519787568256037	-0.5988993155415856	0.6886019657702684	0.688601965770239	0.02678644167830758	0.1745317600740338	0.2616278042755651	0.1170387643673123	0.1672217187842359	0.1389991183022388	0.2348834735052237	-1.092551786524224	0.01373549812237197	-0.2069388106482793	0.8041843499839826	-1.280509086969387	-1.280509086969359	0.2525091398684895	7.303919224736281e-06	-0.4274142427462981	-0.1330403253671052	-0.09064845038291379	0.001576095756866344	0.01854272800525121	-0.2618882310826965	-0.0173523570803478	-0.01316161175255495	0.1706378389593055	-21.58222790986639	-49.37040926276223	-11.23309795451139	-1.359436154010451	2.294670999351768	-648.5423379737546	60.61983759874523	-0.2010106176028608	0.252704174626659	-0.2092856677415106	-0.5112369978696226	-0.09926903840087462	-0.2599774030947864	1.322706425045336	-0.9755142498969516	-0.9755142498969436	0.5091195244281602	-0.02677807768480783	-0.3875909563320386	-0.1901522634312139	1.798132783411698e-08	-6.867489021479785e-08	-7.979195243475925e-07	-5.559216440001273e-07	1.201586270083513e-07	-8.077452874184313e-08	-2.240646179731981e-07
1.51	0.03070876759036569	0.08212705095979148	0.8833473394498415	0.4621903138232725	-0.2290317497434748	-0.1540631539315175	-0.5907923599960041	0.6757498712835935	0.6757498712835441	0.02933516329911413	0.174531952075073	0.2573349725442751	0.1156994152559294	0.1651266347933958	0.1414739391944273	0.2326410147324267	-1.097186661523168	0.01276586594537889	-0.2099221431810934	0.817089096466717	-1.289727387203353	-1.289727387203409	0.2572212738047782	2.663968326035327e-05	-0.4310906455550415	-0.1348124934327723	-0.08569453784152375	0.000188598238823496	0.01809225672006814	-0.2601319959674021	-0.01456708864573193	-0.01364456861809991	0.1658341542212076	-22.15773752476319	-48.35314653973261	-11.1985889493661	-1.440487869564478	2.001558479566973	-646.1892441576407	60.68318538784513	-0.2165973671044744	0.2422336689374623	-0.2388719876504816	-0.4179272226106591	-0.09696955009584243	-0.3147731009035669	1.256709359967257	-0.8676280387297893	-0.8676280387424846	0.4500268705707737	0.01549305603064076	-0.3484198726178063	-0.1684010235483674	1.800333107248588e-08	-7.244342977825173e-08	-8.124458592495802e-07	-5.992574314505212e-07	1.243088192524004e-07	-9.54841543365994e-08	-1.980592844592112e-07
1.52	0.03234908498452518	0.08355372573625224	0.8856613456152895	0.4511988867775477	-0.228909138250871	-0.1561768367472652	-0.5825598868655787	0.6628110657688592	0.6628110657687957	0.03193055956775179	0.1745321781642718	0.2530072257990026	0.1143428140748071	0.1629179477113635	0.1438432649835244	0.230112715735584	-1.100954115390264	0.01174986405848902	-0.2127959526150612	0.829287866952643	-1.297851292580654	-1.297851292580796	0.2618440694347277	1.412155061120371e-05	-0.4343972455426763	-0.136490739314995	-0.08074062530008931	-0.001198899279209636	0.01764178543491007	-0.2583757608520947	-0.01178182021111186	-0.01412752548362965	0.1610304694831438	-22.72495601603042	-47.34162327646213	-11.16621607329619	-1.519906640978853	1.715862553485423	-643.919524302396	60.73345568729239	-0.2237312358413788	0.2316051540084269	-0.2664537125506697	-0.3377527715001594	-0.1085429803802279	-0.2380727833255163	1.181511225683596	-0.756635278564262	-0.7566352785642502	0.4912518631603092	-0.03314885702179187	-0.3136303921102335	-0.1713678267422938	1.636201980533691e-08	-7.395731832737766e-08	-7.958009013477283e-07	-6.269659161379221e-07	1.236948880629209e-07	-1.036668960831771e-07	-1.623274643544405e-07
1.53	0.03396676583947075	0.08500347140936024	0.8879486520412	0.4401743145464969	-0.2287967482037944	-0.1583189361396793	-0.574209041601627	0.649796636572989	0.6497966365729324	0.0345712568774436	0.17453215997241	0.2486482858198677	0.1129701479276264	0.1606031676388714	0.1460785621598264	0.2273024974613445	-1.103798733321364	0.01073332459753634	-0.2156392353196002	0.840751978621036	-1.304837216121909	-1.304837216122049	0.2662347835207292	-3.119366567982859e-06	-0.437327505127794	-0.1380084416092236	-0.07595062162603003	-0.0019102748332464	0.01708609792891949	-0.2560977094168997	-0.009646200353413591	-0.01482157304895405	0.1562994834288959	-23.28199647375443	-46.55669315456321	-11.27685835672633	-1.563202570184356	1.659057040761705	-641.6369806091244	60.41617990473144	-0.2376151002718779	0.2154188740098895	-0.2952377992153444	-0.2335855645893209	-0.09760398501913915	-0.3097948905926043	1.10948005483312	-0.639973547084475	-0.6399735470843567	0.4037531703571819	0.01605615381743762	-0.2732132227369033	-0.1370535495990351	1.295343687607522e-08	-7.307564017378015e-08	-7.46036444841797e-07	-6.380703916396429e-07	1.180190757253175e-07	-1.049148237410653e-07	-1.16261252246962e-07
1.54	0.03556084615222652	0.08647475542914504	0.8902064699014972	0.4291261422840055	-0.2286944024625401	-0.1604899361344536	-0.5657474314375074	0.6367182676106802	0.6367182676106192	0.03725401572580966	0.1745323829439585	0.2442619453486762	0.1115832883337363	0.1581978392736309	0.1481509343188843	0.2242150026129375	-1.105674121679437	0.009741002893924438	-0.2185760730871172	0.8514408469860691	-1.310639245870299	-1.310639245870439	0.2702563771682122	6.235423159168998e-05	-0.4398773439538849	-0.1393294286568871	-0.07116061795192427	-0.002621650387271543	0.0165304104228055	-0.2538196579816955	-0.007510580495709192	-0.01551562061425715	0.1515684973746834	-23.82694068932365	-45.77720362656091	-11.38914496394056	-1.605445775924118	1.609411480854642	-639.4377459521799	60.08444094270598	-0.2418408943911094	0.1990201505597117	-0.3219090273841697	-0.1439068568946046	-0.1036994289120695	-0.2567837959211263	1.026462565011615	-0.5198565199913784	-0.519856519991352	0.4174277754566214	-0.01660595395401328	-0.2375462403047823	-0.1320247774292421	2.545040183032918e-08	-3.830774713067006e-08	-6.126731942559727e-07	-2.914789042394478e-07	8.588977282337404e-08	-4.17629451656287e-08	-2.072268375427377e-07
1.55	0.03713053822270987	0.08796600284515051	0.8924320894652266	0.4180636331207647	-0.2286027310894194	-0.1626878142466421	-0.5571831373735676	0.6235878144251505	0.6235878144251242	0.03997854319552707	0.1745323252176179	0.2398517874166154	0.1101827939007761	0.1557189146027181	0.1500750999552803	0.2208659996044015	-1.106661344329114	0.008603460823352688	-0.2210307238093454	0.8612731562732101	-1.315247840881897	-1.315247840882077	0.2745636664588941	-5.360343733123405e-05	-0.4420784983520332	-0.1407237557683378	-0.06588131991699007	-0.004238010115202761	0.01599182689597684	-0.2524615749971087	-0.004208728670417644	-0.01596087664790451	0.1465097812586092	-24.35782140394078	-44.6077616943818	-11.31743304411247	-1.685785081673314	1.231480477579041	-637.3198041064503	60.2641271659686	-0.2541607549025625	0.1855951311646795	-0.3477981378317024	-0.05116566934169712	-0.1171302301515837	-0.2443491703767536	0.9398936811747729	-0.4008431181016255	-0.4008431181077817	0.4245728213938464	-0.005889250980013143	-0.2000337341997837	-0.1362159169542519	5.627332412863281e-08	3.550295871991979e-08	-3.829895939694073e-07	4.672405404172799e-07	2.328144818425793e-08	9.558871015689527e-08	-4.560768850639932e-07
1.56	0.0386747925461909	0.08947578798971696	0.8946229385588218	0.4069962445909648	-0.2285221048638085	-0.1649111475580533	-0.5485248645026338	0.6104173788642321	0.6104173788642452	0.04274358222125681	0.1745317481990915	0.2354218912016467	0.1087697403489112	0.1531102898733596	0.151858480031083	0.2172609085861481	-1.106649994992287	0.007531973391901569	-0.2236671129316972	0.8702366083847305	-1.3186357209478	-1.318635720948022	0.2783586883703694	-4.150421099668807e-05	-0.4438250005353768	-0.1418412524378387	-0.0606020218820098	-0.005854369843122095	0.01545324336915162	-0.2511034920125079	-0.0009068768451200262	-0.01640613268153283	0.1414510651425695	-24.87268397230173	-43.44199449145285	-11.24408454844255	-1.768989835791855	0.8420959607981243	-635.2592833227313	60.50202104110374	-0.2677809060803204	0.1708630384411484	-0.3731266293276508	0.05580754040600695	-0.09048850108796855	-0.2931314759459304	0.8526911298874803	-0.2757135308525056	-0.2757135308525009	0.3149742996153312	0.009005425097562999	-0.1466157973437305	-0.07665868903930864	7.548557672038927e-08	7.829559572925293e-08	-2.662956908262163e-07	9.094177262461158e-07	-1.126642619361619e-08	1.774719847713986e-07	-6.143899858246666e-07
1.57	0.04019240611386473	0.09100262320812764	0.8967764926383145	0.3959339377250731	-0.2284520882800537	-0.1671610201305195	-0.5397814417969669	0.5972192616773416	0.5972192616773745	0.04554483557627524	0.1745316374261072	0.2309766884107727	0.1073465087366818	0.1503990477424885	0.1534768265061658	0.2134103338155214	-1.105642091103288	0.006465560672439589	-0.2262728642678466	0.8782892100533761	-1.320770849791673	-1.320770849791722	0.2818691271574243	1.023279293059615e-05	-0.4451474032582154	-0.1427876849472923	-0.05550641149645218	-0.007093246252664379	0.01494778559575761	-0.2493601281491348	0.001818838884886006	-0.01712407768176011	0.136506334241361	-25.36962609733114	-42.49083489810875	-11.33833931886597	-1.812225618111565	0.6864494849831863	-633.2977777322086	60.38340316237826	-0.2747952666553352	0.152557793536739	-0.3969194766065999	0.1486849879464606	-0.1154516431475002	-0.2389675101892945	0.7577362809630562	-0.1498991433093012	-0.1498991432833959	0.3656619442160501	0.002063558020668622	-0.1148239898737428	-0.1009589774089243	8.018449217896195e-08	8.231564668701554e-08	-2.908389091122422e-07	9.55917088540091e-07	-1.073873774493817e-08	1.900197835008767e-07	-6.595319031346134e-07
